<svg width="16" height="17" viewBox="0 0 16 17" fill="none" xmlns="http://www.w3.org/2000/svg">
<g clip-path="url(#clip0_8_16)">
<path d="M10.4688 5.76855L7 9.2373L5.5 7.76855C5.14583 7.47689 4.79167 7.47689 4.4375 7.76855C4.14583 8.12272 4.14583 8.47689 4.4375 8.83105L6.4375 10.8311C6.625 10.9769 6.8125 11.0498 7 11.0498C7.20833 11.0498 7.38542 10.9769 7.53125 10.8311L11.5312 6.83105C11.8229 6.47689 11.8229 6.12272 11.5312 5.76855C11.1771 5.47689 10.8229 5.47689 10.4688 5.76855ZM8 0.299805C6.5 0.320638 5.15625 0.685221 3.96875 1.39355C2.76042 2.10189 1.80208 3.06022 1.09375 4.26855C0.385417 5.45605 0.0208333 6.7998 0 8.2998C0.0208333 9.7998 0.385417 11.1436 1.09375 12.3311C1.80208 13.5394 2.76042 14.4977 3.96875 15.2061C5.15625 15.9144 6.5 16.279 8 16.2998C9.5 16.279 10.8438 15.9144 12.0312 15.2061C13.2396 14.4977 14.1979 13.5394 14.9062 12.3311C15.6146 11.1436 15.9792 9.7998 16 8.2998C15.9792 6.7998 15.6146 5.45605 14.9062 4.26855C14.1979 3.06022 13.2396 2.10189 12.0312 1.39355C10.8438 0.685221 9.5 0.320638 8 0.299805ZM8 14.7998C6.16667 14.7581 4.63542 14.1227 3.40625 12.8936C2.17708 11.6644 1.54167 10.1331 1.5 8.2998C1.54167 6.46647 2.17708 4.93522 3.40625 3.70605C4.63542 2.47689 6.16667 1.84147 8 1.7998C9.83333 1.84147 11.3646 2.47689 12.5938 3.70605C13.8229 4.93522 14.4583 6.46647 14.5 8.2998C14.4583 10.1331 13.8229 11.6644 12.5938 12.8936C11.3646 14.1227 9.83333 14.7581 8 14.7998Z" fill="#7B7E86"/>
</g>
<defs>
<clipPath id="clip0_8_16">
<rect width="16" height="16" fill="white" transform="matrix(1 0 0 -1 0 16.2998)"/>
</clipPath>
</defs>
</svg>
